<?xml version="1.0" encoding="utf-8"?>
<!-- Generator: Adobe Illustrator 16.0.0, SVG Export Plug-In . SVG Version: 6.00 Build 0)  -->
<!DOCTYPE svg PUBLIC "-//W3C//DTD SVG 1.1//EN" "http://www.w3.org/Graphics/SVG/1.1/DTD/svg11.dtd">
<svg version="1.1" id="Layer_1" xmlns="http://www.w3.org/2000/svg" xmlns:xlink="http://www.w3.org/1999/xlink" x="0px" y="0px"
	 width="13px" height="21px" viewBox="0 0 13 21" enable-background="new 0 0 13 21" xml:space="preserve">
<path fill="#FFFFFF" d="M12.895,5.832c-0.167,0.217-0.472,0.253-0.685,0.084L6.988,1.53V20.5c0,0.275-0.219,0.5-0.488,0.5
	s-0.488-0.225-0.488-0.5V1.53L0.79,5.899C0.579,6.068,0.271,6.033,0.105,5.815c-0.167-0.216-0.131-0.528,0.081-0.7l5.977-4.976
	c0.059-0.058,0.133-0.102,0.215-0.124C6.38,0.015,6.383,0.015,6.385,0.014c0.011-0.002,0.02-0.005,0.03-0.006
	c0.006-0.002,0.012-0.002,0.019-0.003c0.007,0,0.015-0.002,0.022-0.003C6.471,0,6.485,0,6.5,0s0.03,0,0.044,0.001
	C6.552,0.002,6.56,0.004,6.567,0.004c0.007,0.001,0.012,0.001,0.019,0.003c0.01,0.001,0.02,0.004,0.029,0.006
	c0.002,0,0.005,0,0.007,0.001c0.082,0.022,0.157,0.065,0.215,0.124l5.977,4.992C13.025,5.303,13.063,5.616,12.895,5.832z"/>
</svg>
