<?xml version="1.0" encoding="utf-8"?>
<!-- Generator: Adobe Illustrator 16.0.0, SVG Export Plug-In . SVG Version: 6.00 Build 0)  -->
<!DOCTYPE svg PUBLIC "-//W3C//DTD SVG 1.1//EN" "http://www.w3.org/Graphics/SVG/1.1/DTD/svg11.dtd">
<svg version="1.1" id="Layer_1" xmlns="http://www.w3.org/2000/svg" xmlns:xlink="http://www.w3.org/1999/xlink" x="0px" y="0px"
	 width="55px" height="110px" viewBox="0 0 55 110" enable-background="new 0 0 55 110" xml:space="preserve">
<g id="stroke">
	<path fill="#D1D1D7" d="M27.499,56c0.998,0,1.935,0.386,2.634,1.085l22.781,22.782C53.613,80.566,54,81.501,54,82.5
		c0,0.998-0.387,1.934-1.086,2.633l-22.781,22.781c-0.699,0.7-1.636,1.086-2.634,1.086c-0.999,0-1.934-0.386-2.633-1.086
		L2.084,85.133c-1.451-1.451-1.452-3.814,0-5.266l22.782-22.782C25.565,56.385,26.5,56,27.499,56 M27.499,55
		c-1.211,0-2.422,0.459-3.34,1.378L1.377,79.16c-1.836,1.837-1.836,4.842,0,6.68l22.782,22.781c0.918,0.919,2.129,1.379,3.34,1.379
		s2.422-0.46,3.341-1.379L53.621,85.84c1.838-1.838,1.838-4.843,0-6.68L30.84,56.378C29.921,55.459,28.71,55,27.499,55L27.499,55z"
		/>
</g>
<path id="arrow" fill="#383644" d="M33.814,87.87l-5.979,4.991c-0.058,0.06-0.133,0.103-0.215,0.125c-0.002,0-0.005,0-0.007,0
	c-0.009,0.003-0.019,0.006-0.029,0.007c-0.007,0.002-0.012,0.002-0.019,0.003c-0.007,0-0.016,0.002-0.023,0.003
	C27.53,93,27.516,93,27.5,93c-0.015,0-0.028,0-0.044-0.002c-0.007-0.001-0.015-0.003-0.021-0.003
	c-0.008-0.001-0.014-0.001-0.02-0.003c-0.01-0.001-0.019-0.004-0.03-0.006c-0.002-0.002-0.005-0.002-0.007-0.002
	c-0.082-0.021-0.155-0.065-0.215-0.123l-5.977-4.979c-0.212-0.172-0.248-0.482-0.081-0.697c0.166-0.221,0.474-0.254,0.685-0.084
	l5.223,4.369V72.5c0-0.275,0.219-0.5,0.487-0.5c0.27,0,0.488,0.225,0.488,0.5v18.971l5.222-4.387
	c0.213-0.169,0.519-0.133,0.685,0.084C34.063,87.384,34.025,87.697,33.814,87.87z"/>
<g>
	<g id="stroke_1_">
		<path fill="#8B9EDE" d="M27.499,1c0.998,0,1.935,0.386,2.634,1.085l22.781,22.782C53.613,25.566,54,26.501,54,27.5
			c0,0.998-0.387,1.934-1.086,2.633L30.133,52.914C29.434,53.614,28.497,54,27.499,54c-0.999,0-1.934-0.386-2.633-1.086
			L2.084,30.133c-1.451-1.451-1.452-3.814,0-5.266L24.866,2.085C25.565,1.385,26.5,1,27.499,1 M27.499,0
			c-1.211,0-2.422,0.459-3.34,1.378L1.377,24.16c-1.836,1.837-1.836,4.842,0,6.68l22.782,22.781C25.077,54.54,26.288,55,27.499,55
			s2.422-0.46,3.341-1.379L53.621,30.84c1.838-1.838,1.838-4.843,0-6.68L30.84,1.378C29.921,0.459,28.71,0,27.499,0L27.499,0z"/>
	</g>
	<path id="arrow_1_" fill="#383644" d="M33.814,32.87l-5.979,4.991c-0.058,0.06-0.133,0.103-0.215,0.125c-0.002,0-0.005,0-0.007,0
		c-0.01,0.003-0.02,0.006-0.029,0.007c-0.007,0.002-0.012,0.002-0.02,0.003c-0.006,0-0.016,0.002-0.022,0.003
		C27.529,38,27.516,38,27.5,38s-0.027,0-0.044-0.002c-0.007-0.001-0.015-0.003-0.021-0.003c-0.009-0.001-0.015-0.001-0.021-0.003
		c-0.011-0.001-0.019-0.004-0.03-0.006c-0.002-0.002-0.005-0.002-0.007-0.002c-0.082-0.021-0.155-0.065-0.215-0.123l-5.977-4.979
		c-0.212-0.172-0.248-0.482-0.081-0.697c0.166-0.221,0.474-0.254,0.685-0.084l5.224,4.369V17.5c0-0.275,0.219-0.5,0.486-0.5
		c0.27,0,0.488,0.225,0.488,0.5v18.971l5.222-4.387c0.213-0.169,0.519-0.133,0.685,0.084C34.063,32.384,34.025,32.697,33.814,32.87z
		"/>
</g>
</svg>
